<?xml version="1.0" encoding="utf-8"?>
<!-- Generator: Adobe Illustrator 27.1.1, SVG Export Plug-In . SVG Version: 6.00 Build 0)  -->
<svg version="1.1" id="Layer_1" xmlns="http://www.w3.org/2000/svg" xmlns:xlink="http://www.w3.org/1999/xlink" x="0px" y="0px"
	 viewBox="0 0 1080 1080" style="enable-background:new 0 0 1080 1080;" xml:space="preserve">
<style type="text/css">
	.st0{fill:#131A1C;}
	.st1{fill:none;stroke:#FFFFFF;stroke-width:14;stroke-linecap:round;stroke-linejoin:round;}
	.st2{fill:#FFFFFF;}
	.st3{font-family:'AktivGrotesk-Bold';}
	.st4{font-size:156px;}
	.st5{letter-spacing:-18;}
	.st6{letter-spacing:-4;}
</style>
<g>
	<g id="Rectangle_346">
		<path class="st0" d="M526.8,0h26.4c291,0,526.8,235.9,526.8,526.8v26.4c0,291-235.9,526.8-526.8,526.8h-26.4
			C235.9,1080,0,844.1,0,553.2v-26.4C0,235.9,235.9,0,526.8,0z"/>
	</g>
	<g>
		<g>
			<line class="st1" x1="456.6" y1="655.6" x2="456.6" y2="832.2"/>
			<line class="st1" x1="282.2" y1="697.7" x2="562.6" y2="697.7"/>
			<polyline class="st1" points="456.6,255 456.6,524 282.2,524 			"/>
			<line class="st1" x1="282.2" y1="389.5" x2="631.1" y2="389.5"/>
			<path class="st1" d="M670.2,524V239c0-12.8-10.4-23.1-23.1-23.1H266.2c-12.8,0-23.1,10.4-23.1,23.1v609.3
				c0,12.8,10.4,23.1,23.1,23.1h313.6"/>
			<path class="st1" d="M631.1,524V262.7c0-4.3-3.5-7.7-7.7-7.7H289.9c-4.3,0-7.7,3.5-7.7,7.7v561.9c0,4.3,3.5,7.7,7.7,7.7h272.7"/>
		</g>
		<g>
			<path class="st1" d="M720.8,871.4H576c-7.4,0-13.4-6-13.4-13.4v-63.3c0-7.4,6-13.4,13.4-13.4h144.8c7.4,0,13.4,6,13.4,13.4V858
				C734.2,865.4,728.2,871.4,720.8,871.4z"/>
			<path class="st1" d="M736.4,655.6H501.8c-13.4,0-24.2-10.8-24.2-24.2v-83.2c0-13.4,10.8-24.2,24.2-24.2h234.6
				c19.7,0,35.7,16,35.7,35.7v60.1C772.2,639.6,756.1,655.6,736.4,655.6L736.4,655.6z"/>
			<path class="st1" d="M477.6,623.8h-36.5c-6.3,0-11.5-5.2-11.5-11.5v-44.9c0-6.3,5.2-11.5,11.5-11.5h36.5V623.8L477.6,623.8
				L477.6,623.8z"/>
			<path class="st1" d="M364.7,602.1h64.9v-24.6h-64.9c-6.8,0-12.3,5.5-12.3,12.3l0,0C352.4,596.6,357.9,602.1,364.7,602.1z"/>
			<path class="st1" d="M631.3,781.3h80.3L701.3,743c-4.3-16.1-4.3-33,0-49.1l10.3-38.3h-80.3V781.3z"/>
			<path class="st1" d="M631.3,697.7h-23.7c-13.5,0-24.4-10.9-24.4-24.4v-17.7h48L631.3,697.7L631.3,697.7L631.3,697.7z"/>
			<line class="st1" x1="746.8" y1="589.8" x2="708" y2="589.8"/>
			<line class="st1" x1="746.8" y1="562.9" x2="708" y2="562.9"/>
			<line class="st1" x1="746.8" y1="616.7" x2="708" y2="616.7"/>
			<line class="st1" x1="508.6" y1="623.8" x2="508.6" y2="655.6"/>
			<line class="st1" x1="508.6" y1="524" x2="508.6" y2="598.5"/>
			<line class="st1" x1="703.5" y1="810.4" x2="734.2" y2="810.4"/>
			<line class="st1" x1="562.6" y1="810.4" x2="677.8" y2="810.4"/>
		</g>
	</g>
	<text transform="matrix(1 0 0 1 691.6797 432.6958)" class="st2 st3 st4 st5">1</text>
	<text transform="matrix(1 0 0 1 766.0918 432.6958)" class="st2 st3 st4 st6">00+</text>
</g>
</svg>
