<?xml version="1.0" encoding="utf-8"?>
<!-- Generator: Adobe Illustrator 27.1.1, SVG Export Plug-In . SVG Version: 6.00 Build 0)  -->
<svg version="1.1" id="Layer_1" xmlns="http://www.w3.org/2000/svg" xmlns:xlink="http://www.w3.org/1999/xlink" x="0px" y="0px"
	 viewBox="0 0 1080 1080" style="enable-background:new 0 0 1080 1080;" xml:space="preserve">
<style type="text/css">
	.st0{fill:#65AF7B;}
	.st1{fill:none;stroke:#FFFFFF;stroke-width:18;stroke-linecap:round;stroke-linejoin:round;}
	.st2{fill:#FFFFFF;}
	.st3{font-family:'AktivGrotesk-Bold';}
	.st4{font-size:174.1935px;}
	.st5{letter-spacing:-5;}
</style>
<g id="Rectangle_340">
	<path class="st0" d="M526.8,0h26.3c291,0,526.8,235.9,526.8,526.8v26.3c0,291-235.9,526.8-526.8,526.8h-26.3
		C235.9,1080,0,844.1,0,553.2v-26.3C0,235.9,235.9,0,526.8,0z"/>
</g>
<g id="Group_543">
	<path id="Path_792" class="st1" d="M731.7,887.6l-47.8-47.8h-63.7l-63.7-31.8h-47.8l-31.8-31.8l-63.7,47.8h-63.7l-63.7,31.8
		L254,887.6"/>
	<path id="Path_793" class="st1" d="M476.9,776.1c0-50.7-20.7-315.8-159.2-509.6"/>
	<path id="Path_794" class="st1" d="M410.5,445.4c41.3-30.9,49.8-114.7,34.6-147C411.9,228,337.6,212.8,269.9,171
		c-61.5,100.5-37.8,226.9,95.6,270.7"/>
	<path id="Path_795" class="st1" d="M683.9,403.8c-92.8,45-200.9,124.7-216.8,271.4"/>
	<path id="Path_796" class="st1" d="M521.3,531.2c-33.7-43.3-25.8-139.1,30-196.8c70.1-72.5,254.5-99.2,338.4-102
		c0,115.5-32.8,374.7-349.2,352.6"/>
	<path id="Path_797" class="st1" d="M349.5,553.2c45.6,26.5,47.8,95.6,47.8,95.6s-65.9,26.5-111.5,0
		c-45.6-26.5-95.6-111.5-95.6-111.5S304,526.7,349.5,553.2L349.5,553.2z"/>
</g>
<text transform="matrix(1 0 0 1 665.5938 768.7291)" class="st2 st3 st4 st5">5+</text>
</svg>
