<svg id="Group_554" data-name="Group 554" xmlns="http://www.w3.org/2000/svg" width="26.468" height="21.287" viewBox="0 0 26.468 21.287">
  <path id="Color_Overlay" data-name="Color Overlay" d="M19.322,21.262c-2.563,0-4.94-1.418-7.081-4.506-.784-1.131-2.02-3.241-2.955-4.617a2.11,2.11,0,0,0-2.141-.978s.083-.828.754-.917A6.18,6.18,0,0,0,11,9.449a4.412,4.412,0,0,0,1.508-3.792A4.473,4.473,0,0,0,7.688.948c-1.869,0-1.96.123-1.96.978V14.311c0,3.21.06,3.218,1.81,3.463l.633.092a.6.6,0,0,1-.061.765c-1.357-.062-2.382-.092-3.588-.092-1.266,0-2.935.031-4.352.092a.6.6,0,0,1-.06-.765l.754-.092c1.748-.214,2.392-.253,2.392-3.463v-9.6c0-2.9-.091-3.425-1.327-3.578L.964,1.01A.517.517,0,0,1,.994.245C2.683.092,4.763,0,7.718,0a10.546,10.546,0,0,1,5.035.918,4.564,4.564,0,0,1,2.5,4.281A5.643,5.643,0,0,1,11.488,10.3c-.151.184,0,.49.15.734,2.412,3.945,2.845,5.636,4.915,7.355A7.648,7.648,0,0,0,19.5,19.925a8.858,8.858,0,0,0,1.415.334l.621.033a8.691,8.691,0,0,0,3.867-.914,3,3,0,0,0,.529-.214.827.827,0,0,1,.405-.147c.09.009.138.137.13.229a.32.32,0,0,1-.142.233,3.477,3.477,0,0,1-.677.475.082.082,0,0,1-.035.028l-.071.029a4.778,4.778,0,0,1-.869.337,13.081,13.081,0,0,1-4.541.938C19.749,21.287,19.484,21.262,19.322,21.262ZM16.377,8.975a3.574,3.574,0,0,1,1.133-2.392c.595-.451,1.122-.858,1.574-1.207A9.758,9.758,0,0,0,20.361,4.2a2.257,2.257,0,0,0,.583-1.534,2.1,2.1,0,0,0-.605-1.49,2.012,2.012,0,0,0-2.906,0,2.113,2.113,0,0,0-.595,1.264l-.484-.181A2.529,2.529,0,0,1,17.071.817,2.447,2.447,0,0,1,18.886.038,2.479,2.479,0,0,1,20.7.806a2.607,2.607,0,0,1,.748,1.862,2.724,2.724,0,0,1-.737,1.9,8.807,8.807,0,0,1-1.189,1.083c-.451.35-.968.745-1.53,1.185a2.72,2.72,0,0,0-1.068,1.648h4.523v.5Z" transform="translate(0)" fill="#bbbaba"/>
</svg>
