<svg id="Group_553" data-name="Group 553" xmlns="http://www.w3.org/2000/svg" width="26.468" height="20.918" viewBox="0 0 26.468 20.918">
  <g id="Group_82" data-name="Group 82" transform="translate(0 0)">
    <path id="Path_24" data-name="Path 24" d="M299.04,342.521a8.96,8.96,0,0,1-1.415-.328,7.7,7.7,0,0,1-2.948-1.505c-2.07-1.689-2.5-3.351-4.915-7.228-.15-.24-.3-.54-.15-.721a5.56,5.56,0,0,0,3.769-5.017,4.474,4.474,0,0,0-2.5-4.206,10.705,10.705,0,0,0-5.036-.9c-2.955,0-5.036.09-6.724.241a.5.5,0,0,0-.03.751l.965.12c1.236.15,1.327.661,1.327,3.515v9.435c0,3.155-.644,3.193-2.392,3.4l-.754.09a.578.578,0,0,0,.06.751c1.417-.061,3.086-.091,4.353-.091,1.206,0,2.231.03,3.588.091a.586.586,0,0,0,.06-.751l-.633-.09c-1.749-.241-1.81-.248-1.81-3.4V324.506c0-.841.091-.962,1.96-.962a4.433,4.433,0,0,1,4.824,4.627,4.3,4.3,0,0,1-1.508,3.726,6.268,6.268,0,0,1-3.106.781c-.671.087-.754.9-.754.9a2.123,2.123,0,0,1,2.141.961c.935,1.352,2.171,3.426,2.955,4.537,2.141,3.035,4.518,4.428,7.081,4.428a12.137,12.137,0,0,0,5.353-.9,4.8,4.8,0,0,0,.869-.331l.07-.028a.083.083,0,0,0,.035-.028,3.493,3.493,0,0,0,.677-.466.311.311,0,0,0,.142-.229c.008-.09-.04-.217-.13-.225a.828.828,0,0,0-.405.144,3.068,3.068,0,0,1-.529.21,8.81,8.81,0,0,1-3.867.9" transform="translate(-278.124 -322.613)" fill="#ed5128"/>
  </g>
  <g id="Group_83" data-name="Group 83" transform="translate(16.044 6.341)">
    <path id="Path_25" data-name="Path 25" d="M399.873,369.786a3.478,3.478,0,0,1-.309,1.362l-3.575,7.824-3.237.014,4.033-8.852-5.9.025-.012-2.964,6.16-.026A2.667,2.667,0,0,1,399.873,369.786Z" transform="translate(-390.872 -367.169)" fill="#ed5128"/>
  </g>
</svg>
