<svg xmlns="http://www.w3.org/2000/svg" width="32.688" height="30.541" viewBox="0 0 32.688 30.541">
  <path id="Path_825" data-name="Path 825" d="M544.269,1191.67c-4.342-.367-7.8,2.086-8.2,6.039a5.46,5.46,0,0,0,3.937,5.7,8.6,8.6,0,0,1-4.528-1.649c-2.18-1.607-2.636-3.189-5.177-6.879-.158-.229-.317-.515-.158-.686,1.588-.572,3.97-2.059,3.97-4.776a4.234,4.234,0,0,0-2.636-4,12.34,12.34,0,0,0-5.3-.858c-3.112,0-5.3.086-7.082.229a.447.447,0,0,0-.032.714l1.016.115c1.3.143,1.4.629,1.4,3.345v8.98c0,3-.678,3.039-2.52,3.239l-.795.086a.512.512,0,0,0,.064.715c1.492-.057,3.25-.086,4.584-.086,1.271,0,2.351.028,3.78.086a.518.518,0,0,0,.063-.715l-.667-.086c-1.842-.229-1.906-.237-1.906-3.239V1186.36c0-.8.1-.915,2.064-.915,3.525,0,5.082,2.145,5.082,4.4a3.935,3.935,0,0,1-1.588,3.546,7.164,7.164,0,0,1-3.271.744.974.974,0,0,0-.794.858,2.323,2.323,0,0,1,2.255.915c.984,1.286,2.286,3.26,3.112,4.318,2.255,2.888,4.758,4.214,7.458,4.214a14.042,14.042,0,0,0,5.638-.854,5.473,5.473,0,0,0,.915-.316l.075-.026a.088.088,0,0,0,.037-.027,3.655,3.655,0,0,0,.712-.444.294.294,0,0,0,.149-.219c.009-.086-.043-.206-.137-.214a.928.928,0,0,0-.426.137,4.748,4.748,0,0,1-2.57.3c-.849-.071-4.624-1.344-4.138-6.1a4.269,4.269,0,0,1,4.757-4.019c2.769.234,4.932,2.988,4.42,8-.686,6.732-6.631,12.2-10.534,13.745a.479.479,0,0,0-.355.375.266.266,0,0,0,.222.308,1.282,1.282,0,0,0,.515-.072c4.017-1.423,12.185-6.9,13.006-14.952.444-4.355-1.974-8.026-6.411-8.4" transform="translate(-518.043 -1184.558)" fill="#7f6638"/>
</svg>
