<svg xmlns="http://www.w3.org/2000/svg" xmlns:xlink="http://www.w3.org/1999/xlink" width="25.719" height="20.094" viewBox="0 0 25.719 20.094">
  <defs>
    <clipPath id="clip-path">
      <rect id="Rectangle_278" data-name="Rectangle 278" width="25.719" height="20.094" fill="none"/>
    </clipPath>
  </defs>
  <g id="Group_555" data-name="Group 555" transform="translate(0 0)">
    <g id="Group_538" data-name="Group 538" transform="translate(0 0)" clip-path="url(#clip-path)">
      <path id="Path_787" data-name="Path 787" d="M20.242,19.123a8.726,8.726,0,0,1-1.37-.315,7.47,7.47,0,0,1-2.852-1.446c-2-1.622-2.422-3.219-4.758-6.943-.146-.231-.291-.519-.146-.693a5.35,5.35,0,0,0,3.648-4.82A4.294,4.294,0,0,0,12.343.866,10.434,10.434,0,0,0,7.47,0C4.61,0,2.6.087.962.231A.478.478,0,0,0,.933.953l.933.115c1.2.145,1.285.635,1.285,3.377v9.063c0,3.031-.623,3.067-2.316,3.269l-.729.087a.552.552,0,0,0,.058.721c1.372-.058,2.987-.087,4.213-.087,1.167,0,2.16.029,3.473.087a.56.56,0,0,0,.058-.721l-.612-.087c-1.693-.231-1.752-.239-1.752-3.269V1.819c0-.808.088-.923,1.9-.923A4.275,4.275,0,0,1,12.11,5.34a4.122,4.122,0,0,1-1.459,3.579,6.1,6.1,0,0,1-3.006.75c-.65.084-.729.866-.729.866a2.061,2.061,0,0,1,2.072.924c.9,1.3,2.1,3.29,2.86,4.358,2.071,2.915,4.372,4.254,6.853,4.254a11.833,11.833,0,0,0,5.18-.863,4.652,4.652,0,0,0,.841-.318l.069-.027a.089.089,0,0,0,.034-.027,3.391,3.391,0,0,0,.655-.447.3.3,0,0,0,.137-.221c.008-.087-.038-.209-.125-.216a.8.8,0,0,0-.393.139,3.053,3.053,0,0,1-.511.2,8.589,8.589,0,0,1-3.743.863" transform="translate(0 0)" fill="#008599"/>
      <path id="Path_788" data-name="Path 788" d="M20.358,1.04c5.01,0,9.072,3.236,9.072,7.228s-4.062,7.227-9.072,7.227" transform="translate(-3.711 -0.189)" fill="#008599"/>
      <path id="Path_789" data-name="Path 789" d="M27.157,12.11l-4.823,1.4V4.359l4.839,1.209Z" transform="translate(-4.071 -0.794)" fill="#fff"/>
      <path id="Path_790" data-name="Path 790" d="M27.737,10.829a.239.239,0,1,1-.239-.239.239.239,0,0,1,.239.239" transform="translate(-4.969 -1.93)" fill="#008599"/>
    </g>
  </g>
</svg>
